<svg xmlns="http://www.w3.org/2000/svg" xmlns:xlink="http://www.w3.org/1999/xlink" width="500" zoomAndPan="magnify" viewBox="0 0 375 374.999991" height="500" preserveAspectRatio="xMidYMid meet" version="1.0"><defs><clipPath id="a21decf711"><path d="M 240 155 L 337.5 155 L 337.5 330 L 240 330 Z M 240 155 " clip-rule="nonzero"/></clipPath><clipPath id="a51ac886b0"><path d="M 38 12.574219 L 257 12.574219 L 257 310 L 38 310 Z M 38 12.574219 " clip-rule="nonzero"/></clipPath><clipPath id="c702e04616"><path d="M 37.5 305 L 337 305 L 337 362.074219 L 37.5 362.074219 Z M 37.5 305 " clip-rule="nonzero"/></clipPath></defs><g clip-path="url(#a21decf711)"><path fill="#393536" d="M 335.367188 329.113281 C 334.691406 329.113281 334.046875 328.730469 333.746094 328.070312 C 330.828125 321.757812 313.503906 290.488281 295.167969 257.386719 C 274.464844 220.003906 251 177.644531 240.964844 158.101562 C 240.515625 157.21875 240.859375 156.140625 241.738281 155.6875 C 242.609375 155.246094 243.691406 155.582031 244.152344 156.464844 C 254.160156 175.957031 277.617188 218.300781 298.304688 255.660156 C 317.472656 290.257812 334.027344 320.140625 336.992188 326.578125 C 337.414062 327.46875 337.023438 328.535156 336.117188 328.945312 C 335.878906 329.054688 335.621094 329.113281 335.367188 329.113281 " fill-opacity="1" fill-rule="nonzero"/></g><g clip-path="url(#a51ac886b0)"><path fill="#393536" d="M 153.019531 134.800781 C 159.386719 140.257812 167.488281 144.1875 177.816406 145.304688 C 203.777344 148.160156 224.558594 146.027344 229.519531 140.046875 C 230.570312 138.789062 230.824219 137.417969 230.316406 135.738281 C 229.765625 133.902344 227.632812 132.113281 224.152344 130.566406 C 208.796875 123.75 174.640625 123.902344 160.027344 130.824219 C 157.164062 132.183594 154.945312 133.414062 153.019531 134.800781 Z M 41.613281 309.179688 L 38.574219 307.292969 C 38.574219 307.292969 121.070312 174.8125 135.082031 152.386719 C 140.578125 143.585938 143.769531 138.480469 147.617188 134.714844 C 138.597656 125.597656 133.371094 113.5625 130.351562 102.886719 C 125.375 85.320312 117.742188 27.339844 117.417969 24.878906 L 117.230469 23.445312 L 137.835938 16.097656 L 138.40625 17.851562 C 138.476562 18.074219 145.792969 40.269531 160.230469 57.222656 C 174.402344 73.890625 200.828125 71.632812 216.625 59.09375 C 228.957031 49.285156 231.4375 33.273438 233.832031 17.789062 L 234.644531 12.601562 L 256.957031 16.257812 L 256.957031 17.777344 C 256.957031 18.0625 256.878906 25.242188 250.054688 63.066406 C 243.210938 101 239.421875 108.84375 239.261719 109.160156 C 238.820312 110.042969 237.714844 110.394531 236.859375 109.960938 C 235.972656 109.523438 235.613281 108.453125 236.046875 107.570312 C 236.148438 107.375 239.890625 99.179688 246.527344 62.4375 C 251.71875 33.652344 252.972656 22.832031 253.269531 19.277344 L 237.621094 16.710938 L 237.371094 18.335938 C 234.871094 34.496094 232.289062 51.222656 218.855469 61.894531 C 201.757812 75.492188 173.015625 77.769531 157.503906 59.542969 C 144.8125 44.636719 137.640625 26.378906 135.601562 20.695312 L 121.164062 25.84375 C 122.394531 35.074219 129.324219 86.105469 133.796875 101.90625 C 136.695312 112.148438 141.707031 123.6875 150.363281 132.339844 C 152.582031 130.652344 155.15625 129.175781 158.488281 127.59375 C 173.796875 120.328125 209.550781 120.175781 225.601562 127.292969 C 230.136719 129.308594 232.871094 131.796875 233.746094 134.707031 C 234.59375 137.523438 234.082031 140.164062 232.269531 142.339844 C 225.246094 150.773438 199.324219 151.242188 177.429688 148.871094 C 165.996094 147.625 157.117188 143.222656 150.214844 137.160156 C 146.671875 140.589844 143.664062 145.410156 138.121094 154.289062 C 124.109375 176.710938 41.613281 309.179688 41.613281 309.179688 " fill-opacity="1" fill-rule="nonzero"/></g><g clip-path="url(#c702e04616)"><path fill="#393536" d="M 134.972656 362.03125 C 133.214844 362.03125 131.429688 362.003906 129.613281 361.933594 C 66.394531 359.5625 47.640625 325.910156 38.621094 309.730469 L 37.941406 308.507812 C 37.457031 307.648438 37.761719 306.558594 38.628906 306.074219 C 39.457031 305.574219 40.574219 305.882812 41.0625 306.757812 L 41.757812 307.988281 C 50.445312 323.597656 68.546875 356.066406 129.753906 358.351562 C 165.039062 359.773438 189.324219 347.277344 212.671875 335.292969 C 231.269531 325.742188 248.828125 316.722656 271.070312 314.800781 C 319.699219 310.621094 335.390625 325.414062 336.035156 326.050781 C 336.734375 326.742188 336.746094 327.878906 336.050781 328.582031 C 335.355469 329.28125 334.222656 329.300781 333.515625 328.597656 C 333.382812 328.460938 318.105469 314.355469 271.378906 318.367188 C 249.84375 320.226562 232.585938 329.09375 214.308594 338.480469 C 191.753906 350.066406 168.453125 362.03125 134.972656 362.03125 " fill-opacity="1" fill-rule="nonzero"/></g></svg>